<?xml version="1.0" encoding="utf-8"?>
<!-- Generator: Adobe Illustrator 18.1.1, SVG Export Plug-In . SVG Version: 6.00 Build 0)  -->
<svg version="1.1" baseProfile="tiny" xmlns="http://www.w3.org/2000/svg" xmlns:xlink="http://www.w3.org/1999/xlink" x="0px"
	 y="0px" viewBox="0 0 500 375" xml:space="preserve">
<g id="Layer_1" display="none">
	<image display="inline" width="500" height="375" xlink:href="img1.jpg"  transform="matrix(1 0 0 1 0 1)">
	</image>
</g>
<g id="Layer_2">
	<path fill="none" stroke="#2E4B8C" stroke-width="2" stroke-miterlimit="10" d="M286.5,267.2c0.3-0.9,1.2-1.6,2.1-1.8
		s1.9-0.3,2.8,0c1.6,0.4,3.2,1.5,3.3,3.1"/>
	<path fill="none" stroke="#2E4B8C" stroke-width="2" stroke-miterlimit="10" d="M292.2,275.3c0.4,0.9,0.6,1.8,0.5,2.8
		c0,0.8-0.3,1.6-0.9,2c-0.8,0.4-1.7,0-2.4-0.5c-0.7-0.5-1.2-1.2-1.5-2c-0.3-0.8-0.2-1.7,0.3-2.4c0.5-0.7,1.4-1.1,2.2-0.8
		C291,274.5,291.9,274.7,292.2,275.3z"/>
	<path fill="none" stroke="#2E4B8C" stroke-width="2" stroke-miterlimit="10" d="M319.7,269.5c0.4-1.3,0.9-2.6,2.1-3.1
		c0.6-0.3,1.2-0.3,1.9-0.3c0.5,0,1,0,1.4,0.2c1.4,0.4,2.1,1.9,2.5,3.2"/>
	<path fill="none" stroke="#2E4B8C" stroke-width="2" stroke-miterlimit="10" d="M324.4,274.7c0.5,0.1,1,0.2,1.4,0.5
		c0.2,0.9,0.2,1.7,0.1,2.6c-0.1,0.7-0.2,1.4-0.8,1.7c-0.7,0.4-1.7,0-2.3-0.5c-0.5-0.4-1-0.9-1.3-1.5c-0.3-0.6-0.3-1.4,0-1.9
		c0.5-0.8,1.6-0.9,2.5-1C324.1,274.6,324.3,274.7,324.4,274.7z"/>
	<path fill="none" stroke="#2E4B8C" stroke-width="2" stroke-miterlimit="10" d="M300.1,290.7c-0.4-1.1,1-2.3,2.2-2
		c1.2,0.3,2,1.4,2.4,2.6c0.1,0.3,0.2,0.6,0.5,0.9c0.2,0.2,0.5,0.3,0.8,0.4c1.3,0.4,3.2,0.2,3.6-1.1c0.2-0.8-0.2-1.7,0-2.5
		c0.4-1.2,2.1-1.3,3.1-0.7s1.6,1.8,2.4,2.8c0.8,1,1.9,1.9,3.1,1.6c1.5-0.3,2.1-2,2.4-3.4c0.4-1.8,0.6-3.7-0.2-5.3
		c-1.2-2.6-4.6-3.6-6-6.2c-1-1.8-0.9-4-1.2-6c-0.1-0.7-0.3-1.4-0.9-1.8c-0.4-0.4-1-0.5-1.6-0.5c-1.5-0.2-3.1-0.4-4.7-0.2
		c-1.6,0.2-3.1,0.9-4.1,2.1c-1,1.2-1.3,2.9-1.6,4.4c-0.5,2.8-1.2,5.8-3,8c-0.8,1-1.8,1.8-2.4,2.9c-0.7,1.1-0.9,2.5-0.2,3.5
		c0.9,1.3,2.8,1.2,4.4,1C299.5,291.1,300.3,291,300.1,290.7z"/>
	<path fill="none" stroke="#2E4B8C" stroke-width="3" stroke-miterlimit="10" d="M278.3,286.9c-1.8,1.4-3.2,3.2-4.3,5.2"/>
	<path fill="none" stroke="#2E4B8C" stroke-width="3" stroke-miterlimit="10" d="M285.6,287.2c-1.3,1.8-2.5,3.6-3.7,5.4"/>
	<path fill="none" stroke="#2E4B8C" stroke-width="2" stroke-miterlimit="10" d="M329.9,287.9c-0.5,1.5-1.1,3-1.7,4.4"/>
	<path fill="none" stroke="#2E4B8C" stroke-width="2" stroke-miterlimit="10" d="M337.9,288.7c-0.8,1.1-1.5,2.2-2.1,3.4"/>
	<path fill="none" stroke="#C4AF03" stroke-width="2" stroke-miterlimit="10" d="M281.9,322.8c-5.9,0-12,0-17.6,1.8
		c-2.3,0.8-4.6,1.9-6.9,2.8c-1.7,0.6-3.4,1.2-5.2,1.6c-1.1,0.3-2.3,0.5-3.4,0.2c-2.3-0.5-3.8-2.5-5.2-4.4s-3.3-3.7-5.6-3.6
		c-0.8,0-1.6,0.3-2.1,1c-0.5,0.6-0.5,1.4-0.5,2.2c0.2,2.2,1.5,4.3,3.4,5.5c-5.5-0.8-11,1.1-16.3,3c-0.3,0.1-0.6,0.2-0.7,0.4
		c-0.5,0.7,0.5,1.5,1.3,1.8c4.3,1.4,8.8,2.1,13.3,2c-3,0.1-6,0.5-8.8,1.4c-1,0.3-2.1,0.8-2.4,1.7c-0.3,0.9,0.2,1.9,1,2.4
		c0.8,0.5,1.7,0.7,2.7,0.8c2.6,0.3,5.3,0.1,7.8-0.4c-3.5,0.2-7,0.9-10.3,2.2c-0.5,0.2-1.1,0.5-1.2,1c-0.1,0.4,0.2,0.9,0.5,1.2
		c1.2,1.5,3.1,2.3,4.9,2.6s3.8,0.2,5.7,0c2.7-0.3,5.7-0.8,7.4-2.9c0.6-0.8,1-1.7,1.4-2.7c1.2-2.8,2.6-5.6,4.8-7.7
		c3.1-3,7.3-4.4,11.5-5.3c6.5-1.3,13.2-1.5,19.8-0.5"/>
	<path fill="none" stroke="#C4AF03" stroke-width="2" stroke-miterlimit="10" d="M330.9,323.2c5.6,0.7,10.2,4.4,15.2,7
		c4.9,2.7,10.3,4.4,15.8,5.1c0.6,0.1,1.2,0.1,1.7-0.1c0.7-0.2,1.2-0.9,1.6-1.4c0.8-1,1.7-1.9,2.7-2.8c1.3-1.2,3-2.3,4.6-1.8
		c0.4,0.1,0.7,0.3,0.9,0.6c0.2,0.4,0.2,0.8,0.1,1.2c-0.5,2.1-1.9,3.8-3.3,5.4c4.3-1.4,9-1.4,13.3,0.1c0.9,0.3,1.8,0.7,2.5,1.4
		c0.7,0.7,1,1.8,0.6,2.7c-0.5,1.1-1.9,1.5-3.2,1.6c-2.3,0.2-4.6,0.1-6.8-0.4c3.1,1.1,6.4,2.2,8.7,4.6c0.4,0.4,0.8,1,0.5,1.5
		c-0.1,0.2-0.3,0.3-0.5,0.4c-1.6,0.8-3.6,0.8-5.3,0.4s-3.4-1.3-5-2.1c2.5,1.5,5.1,3.1,6.9,5.4c0.4,0.5,0.8,1.2,0.5,1.8
		c-0.2,0.6-0.9,0.8-1.5,1c-1.8,0.5-3.7,1-5.6,0.8c-1.6-0.2-3.2-0.8-4.4-1.9c-1.2-1-2.1-2.4-3.3-3.5c-2.8-2.6-6.8-3.3-10.2-5
		c-2-1-3.9-2.4-5.7-3.8c-2.4-1.9-4.9-3.7-7.3-5.6c-2.1-1.6-4.1-3.1-6.5-4.3c-2.3-1.1-4.9-1.9-7.5-1.6"/>
</g>
<g id="Layer_4">
</g>
<g id="Layer_3">
	<path fill="none" stroke="#2E4B8C" stroke-width="3" stroke-miterlimit="10" d="M166.2,148.6c-0.4,1.1-1,2.2-1.8,3.1
		s-2,1.5-3.2,1.5c-0.2,0-0.5,0-0.7-0.2c-0.2-0.2-0.3-0.6-0.3-0.9c-0.3-2.7,0.5-5.9,2.8-7.2c0.5-0.3,1-0.5,1.6-0.3
		c0.7,0.2,1.1,0.8,1.3,1.4c0.2,0.7,0.1,1.3,0,2c0.6-1.7,0.1-3.6-0.8-5.1c-0.9-1.5-2.2-2.8-3.4-4.1c-1.9-2.2-3.4-4.8-4.5-7.6
		c2.3,0.3,4.7,0.6,6.7,1.7c2.1,1,3.9,3,4.1,5.3"/>
	<path fill="none" stroke="#2E4B8C" stroke-width="3" stroke-miterlimit="10" d="M195.7,130.4c-1.3,0.8-2.4,1.9-3,3.2
		c-0.2,0.4-0.3,0.8-0.3,1.2c0.1,0.9,1.2,1.4,2.1,1.1c0.9-0.3,1.4-1.1,1.7-2c0.6-1.8,0.4-3.7-0.2-5.5c-0.5-1.8-1.4-3.5-1.9-5.3
		c-0.9-3.3-0.8-6.8-1.9-10c-0.1-0.3-0.2-0.6,0-0.8c0.2-0.3,0.5-0.3,0.9-0.3c3.4,0,6.6,2.6,7.3,5.9"/>
	<path fill="none" stroke="#2E4B8C" stroke-width="3" stroke-miterlimit="10" d="M193.8,118.7c1.4,0.3,2.8,0.6,4.1,1.2
		s2.4,1.6,3,2.9"/>
	<path fill="none" stroke="#2E4B8C" stroke-width="3" stroke-miterlimit="10" d="M219.4,137.6c-1.5,0-2.9,0.5-4.1,1.4
		c-0.2,0.1-0.4,0.3-0.4,0.5c-0.2,0.5,0.5,0.9,1,1.1c1.2,0.5,2.5,0.9,3.7,0.5c1.2-0.4,2.1-2,1.3-3c-0.2-0.2-0.4-0.4-0.6-0.6
		c-0.4-0.6-0.4-1.3-0.3-2c0.6-4.8,1.2-9.5,1.7-14.3c0-0.3,0.1-0.5,0.3-0.7c0.2-0.2,0.5-0.2,0.7-0.2c3.3-0.2,6.6-0.3,9.8-0.3
		c0.2,0,0.3,0,0.5,0.1c0.2,0.1,0.2,0.4,0.2,0.6c0.2,4.4-0.3,8.9-1.2,13.3c-0.8-1.6-3.3-1.6-4.8-0.6c-0.6,0.5-1.2,1.2-1.2,2
		c0.1,1.3,1.7,1.9,3,2.1c0.8,0.1,1.8,0.1,2.5-0.3c0.7-0.4,1.2-1.4,0.8-2.2"/>
</g>
</svg>
